<?xml version="1.0" encoding="UTF-8"?>
<svg id="Layer_1" data-name="Layer 1" xmlns="http://www.w3.org/2000/svg" width="524.24" height="139.66" viewBox="0 0 524.24 139.66">
  <defs>
    <style>
      .cls-1 {
        fill: #ffffff;
        stroke-width: 0px;
      }
    </style>
  </defs>
  <g>
    <path class="cls-1" d="m173.08,93.36c4.12,0,4.33-.17,4.33-2.11v-45.79c0-1.94-.22-2.11-4.33-2.11v-2.37h39.45c1.73,0,1.95-.51,1.95-3.21h1.95v15.38h-1.95c0-4.06-.22-4.31-1.95-4.31h-24.28v15.04h14.31c1.73,0,1.88-.34,1.88-4.31h2.02v16.39h-2.02c0-4.06-.14-4.31-1.88-4.31h-14.31v19.6c0,1.94.65,2.11,5.49,2.11v2.37h-20.66v-2.37Z"/>
    <path class="cls-1" d="m217.01,93.36c2.67,0,3.54-.17,4.33-2.11l18.57-45.79c.87-1.94,0-2.11-3.76-2.11v-2.37h21.75v2.37c-3.61,0-4.55.17-3.83,2.11l18.5,45.79c.79,1.94,1.66,2.11,4.41,2.11v2.37h-21.39v-2.37c4.26,0,5.2-.08,4.41-2.11l-3.47-8.45h-23.55l-3.18,8.45c-.87,2.03.07,2.11,4.33,2.11v2.37h-17.12v-2.37h0Zm36.7-17.4l-9.39-23.32-8.89,23.32h18.28Z"/>
    <path class="cls-1" d="m329.01,78.06l9.1,10.05-1.3,1.69c-1.3-1.44-1.73-1.69-3.03-.51-2.38,2.2-8.96,8.28-21.17,8.28-16.04,0-28.97-11.74-28.97-28.98s12.86-29.57,29.19-29.57c11.56,0,18.06,5.49,20.66,8.2,1.37,1.18,1.81,1.01,3.03-.51l1.37,1.69-9.1,10.05-1.45-1.69c2.02-2.28,1.95-2.7.94-3.89-1.73-1.86-7.3-6.34-14.88-6.34-9.32,0-16.91,8.79-16.91,22.05s8.02,21.46,17.05,21.46c8.31,0,13.37-4.65,15.03-6.34,1.01-1.27,1.08-1.69-1.01-3.97l1.45-1.69v.02Z"/>
    <path class="cls-1" d="m349.82,93.36c4.12,0,4.33-.17,4.33-2.11v-45.79c0-1.94-.22-2.11-4.33-2.11v-2.37h40.24c1.73,0,1.95-.51,1.95-3.21h1.95v15.38h-1.95c0-4.06-.22-4.31-1.95-4.31h-25.07v14.36h14.38c1.73,0,1.88-.34,1.88-4.31h2.02v16.39h-2.02c0-4.06-.14-4.31-1.88-4.31h-14.38v16.81h26.8c1.73,0,1.88-.25,1.88-4.31h2.02v15.46h-2.02c0-2.7-.14-3.21-1.88-3.21h-41.98v-2.37h.01Z"/>
    <path class="cls-1" d="m409.51,93.36c4.12,0,4.33-.17,4.33-2.11v-45.79c0-1.94-.22-2.11-4.33-2.11v-2.37h31c10.33,0,14.96,1.6,18.5,5.66,2.24,2.53,3.47,6.42,3.47,10.73,0,3.21-1.23,6.25-3.32,8.62-2.46,2.7-6.14,4.39-10.12,4.9l11.42,20.36c1.01,1.69,1.88,2.11,4.33,2.11v2.37h-20.74v-2.37c2.96,0,3.97-.42,3.03-2.11l-9.97-18.42h-12.43v18.42c0,1.94.29,2.11,4.41,2.11v2.37h-19.58v-2.37h0Zm31-27.8c5.78,0,10.26-2.96,10.26-8.53,0-7.52-5.42-8.7-11.92-8.7h-14.16v17.24h15.82Z"/>
    <path class="cls-1" d="m478.37,93.36c4.12,0,4.33-.17,4.33-2.11v-45.79c0-1.94-.22-2.11-4.33-2.11v-2.37h40.24c1.73,0,1.95-.51,1.95-3.21h1.95v15.38h-1.95c0-4.06-.22-4.31-1.95-4.31h-25.07v14.36h14.38c1.73,0,1.88-.34,1.88-4.31h2.02v16.39h-2.02c0-4.06-.14-4.31-1.88-4.31h-14.38v16.81h26.8c1.73,0,1.88-.25,1.88-4.31h2.02v15.46h-2.02c0-2.7-.14-3.21-1.88-3.21h-41.98v-2.37h.01Z"/>
  </g>
  <path class="cls-1" d="m69.83,0c-3.78,0-7.5.3-11.12.88-1.57.25-3.13.56-4.67.91,16.9-2.92,30.83,3.09,35.39,5.31,25.23,12.25,31.86,38.37,32.5,41.08,5.7,24.12-2.86,55.59-21.69,62.2-7.56,2.65-18.72,2.02-26.26-4.91-5.21-4.8-8.59-12.41-7.6-20.57.12-1,1.57-11.59,11.22-17.56,8.53-5.29,19.6-4.56,27.42,1.12,8.19,5.95,11.46,15.73,11.73,17.63,1.77-4.73,7.29-23.19.6-42.76-1.57-4.58-6.38-19.32-21.2-29.75C73.92-2.06,46.39,4.94,38.71,7.31,15.76,18.75,0,42.44,0,69.83c0,38.56,31.26,69.83,69.83,69.83s69.83-31.26,69.83-69.83S108.39,0,69.83,0Z"/>
</svg>
